<?xml version="1.0" standalone="no"?>
<!DOCTYPE svg PUBLIC "-//W3C//DTD SVG 20010904//EN"
 "http://www.w3.org/TR/2001/REC-SVG-20010904/DTD/svg10.dtd">
<svg version="1.0" xmlns="http://www.w3.org/2000/svg"
 width="820.000000pt" height="200.000000pt" viewBox="0 0 820.000000 200.000000"
 preserveAspectRatio="xMidYMid meet">

<g transform="translate(0.000000,200.000000) scale(0.100000,-0.100000)"
fill="#657286" stroke="none">
<path d="M2183 1690 c-73 -14 -155 -46 -210 -84 -95 -65 -130 -189 -80 -286
27 -54 97 -110 138 -110 38 0 39 27 2 41 -78 29 -123 92 -123 169 0 118 112
202 310 231 287 42 567 -75 667 -279 35 -70 38 -82 38 -161 0 -71 -5 -96 -26
-141 -36 -77 -77 -121 -151 -160 -55 -30 -74 -35 -153 -38 -63 -3 -110 1 -155
12 -60 16 -180 64 -180 73 0 2 11 25 24 51 33 66 42 100 70 247 25 140 49 200
96 242 34 30 39 53 11 53 -23 0 -88 -71 -108 -118 -8 -20 -28 -102 -43 -182
-27 -142 -45 -201 -75 -247 l-15 -22 -63 29 c-85 38 -165 52 -225 39 -52 -11
-70 -22 -95 -59 -25 -36 -21 -65 13 -104 56 -63 179 -72 286 -21 28 14 59 34
68 44 17 19 19 19 86 -15 98 -49 185 -67 305 -62 83 3 110 9 155 31 86 41 135
89 175 170 84 170 43 366 -104 498 -63 56 -187 120 -281 144 -76 20 -282 28
-357 15z m-153 -680 c59 -14 150 -50 150 -60 0 -25 -128 -80 -184 -80 -61 0
-136 41 -136 73 0 24 25 48 65 62 48 17 49 17 105 5z"/>
<path d="M5365 1648 c-2 -7 -5 -151 -7 -319 l-4 -306 -27 -45 c-33 -57 -90
-108 -121 -108 -13 0 -31 9 -42 21 -16 18 -19 34 -16 113 3 103 -1 112 -58
118 -30 3 -36 7 -45 41 -6 21 -17 42 -25 47 -33 21 -96 -84 -70 -115 7 -8 21
-15 31 -15 27 0 24 -23 -13 -91 -31 -60 -87 -119 -112 -119 -30 0 -57 35 -64
85 -10 68 -32 71 -55 5 -29 -80 -97 -107 -125 -48 -18 38 0 102 39 141 26 25
35 28 72 24 23 -2 52 -8 65 -12 31 -10 30 20 -3 41 -18 12 -39 15 -76 12 -61
-6 -103 -42 -144 -123 -34 -68 -84 -120 -130 -135 -44 -15 -52 -9 -31 22 24
34 19 82 -15 151 -18 34 -35 84 -38 112 -5 41 -9 50 -26 50 -17 0 -21 -9 -26
-66 -4 -54 -13 -78 -50 -139 -46 -77 -96 -124 -142 -136 l-28 -6 25 37 c64 93
36 235 -45 235 -44 0 -58 -10 -94 -63 l-34 -51 -3 95 c-2 77 -6 94 -19 97 -13
2 -19 -10 -28 -60 -22 -124 -123 -278 -184 -278 -49 0 -62 38 -59 168 3 106 2
113 -15 110 -14 -2 -19 -15 -23 -59 -6 -65 -22 -89 -59 -89 -35 0 -67 34 -90
96 -11 27 -26 50 -34 52 -13 3 -16 -11 -15 -90 0 -103 -10 -139 -45 -163 -32
-21 -73 -5 -88 32 -6 16 -9 64 -7 108 2 67 0 80 -13 83 -18 3 -29 -34 -29 -95
0 -73 -47 -137 -97 -131 -56 6 -67 96 -23 183 11 21 17 42 14 46 -25 42 -77
-55 -78 -147 -1 -85 22 -118 88 -122 41 -3 50 1 77 28 29 29 32 30 45 13 7
-10 14 -21 14 -24 0 -4 13 -12 29 -19 68 -28 135 23 147 110 4 28 8 50 10 50
2 0 15 -11 30 -25 20 -19 38 -25 70 -25 42 0 44 -1 54 -41 15 -56 50 -89 93
-89 48 0 95 35 142 107 22 34 43 62 48 63 17 0 4 -63 -28 -133 -112 -247 -163
-493 -120 -577 13 -25 22 -30 50 -30 92 0 122 100 134 455 l8 210 37 65 c48
82 64 100 91 100 48 0 59 -113 17 -169 -23 -32 -71 -40 -89 -16 -12 17 -43 14
-43 -4 0 -20 70 -69 108 -76 94 -15 184 47 251 173 l33 64 20 -33 c29 -48 35
-101 12 -123 -17 -17 -28 -17 -82 0 -39 11 -25 -35 18 -60 71 -41 194 -13 246
57 10 14 18 18 21 10 27 -71 103 -86 161 -30 26 24 36 28 40 18 10 -29 52 -61
78 -61 68 0 171 117 190 215 6 32 9 35 39 35 40 0 44 -8 32 -80 -10 -68 3
-121 40 -149 49 -40 125 -18 175 49 l23 32 5 -54 c4 -44 8 -53 24 -53 15 0 24
15 41 65 30 88 57 140 93 173 32 31 58 32 76 5 20 -33 -4 -71 -66 -102 -50
-24 -58 -32 -58 -56 0 -19 10 -37 30 -54 66 -55 152 -43 233 35 28 27 52 49
54 49 2 0 3 -7 3 -15 0 -8 14 -30 31 -50 56 -64 143 -66 213 -5 36 32 90 127
101 178 6 29 10 32 42 32 l35 0 -7 -84 c-6 -71 -4 -89 11 -114 31 -54 93 -67
150 -31 37 23 129 153 119 169 -14 22 -34 7 -66 -47 -35 -58 -87 -103 -120
-103 -11 0 -28 9 -40 21 -19 19 -20 28 -14 113 8 105 4 113 -60 118 -37 3 -40
6 -43 34 -2 18 -12 40 -22 49 -18 16 -20 16 -44 -10 -46 -49 -43 -115 5 -115
25 0 24 -9 -9 -83 -38 -83 -88 -127 -145 -127 -24 0 -51 6 -62 13 -17 13 -15
17 33 64 48 45 52 53 52 95 0 38 -5 50 -26 67 -55 44 -93 21 -151 -92 -50 -97
-96 -141 -160 -153 -66 -12 -140 45 -78 60 13 3 43 23 65 45 49 47 55 97 15
136 -52 53 -130 14 -180 -91 -14 -30 -28 -54 -30 -54 -3 0 -2 158 2 350 6 325
5 350 -11 350 -9 0 -18 -6 -21 -12z m-355 -508 c0 -11 -7 -20 -15 -20 -17 0
-18 2 -9 24 9 23 24 20 24 -4z m1082 -12 c-15 -15 -26 -4 -18 18 5 13 9 15 18
6 9 -9 9 -15 0 -24z m-204 -50 c24 -24 14 -68 -24 -106 -36 -36 -37 -37 -47
-15 -13 29 0 90 24 114 22 22 31 23 47 7z m-2022 -595 c-18 -135 -39 -188 -76
-188 -24 0 -25 3 -28 70 -3 80 27 214 80 354 l33 86 3 -104 c1 -57 -4 -155
-12 -218z"/>
<path d="M3596 1334 c-32 -31 -8 -84 38 -84 29 0 46 18 46 50 0 14 -5 31 -12
38 -17 17 -54 15 -72 -4z m54 -34 c0 -11 -6 -20 -14 -20 -18 0 -29 16 -21 30
11 18 35 11 35 -10z"/>
</g>
</svg>
